# xmcd
#
# Track frame offsets: 
#        150
#        34040
#        60277
#        90579
#        141542
#        172262
#        174457
#        197140
#
# Disc length: 2932 seconds
#
# Revision: 11
# Processed by: cddbd v1.5.2PL0 Copyright (c) Steve Scherf et al.
# Submitted via: ExactAudioCopy v1.0b3
#
DISCID=6d0b7208
DTITLE=Walter Trout - Live Trout [CD1)
DYEAR=2000
DGENRE=Blues/Rock
TTITLE0=I Can Tell
TTITLE1=Walkin' In The Rain
TTITLE2=Say What You Mean
TTITLE3=The Reason I'm Gone
TTITLE4=Come Home
TTITLE5=Walter Speaks
TTITLE6=Livin' Every Day
TTITLE7=Let Me Know
EXTD=YEAR: 2000
EXTT0=
EXTT1=
EXTT2=
EXTT3=
EXTT4=
EXTT5=
EXTT6=
EXTT7=
PLAYORDER=
